{"title":"Gargantia on the Verdurous Planet","uid":11685279,"size":1580039254,"categoryP":"video","categoryS":"tv_shows","magnet":"?xt=urn:btih:36359c0383c3b4c4dfd66e05aaf5729ce3a76e96&amp;dn=Gargantia+on+the+Verdurous+Planet&amp;tr=udp%3A%2F%2Ftracker.openbittorrent.com%3A80&amp;tr=udp%3A%2F%2Fopen.demonii.com%3A1337&amp;tr=udp%3A%2F%2Ftracker.coppersurfer.tk%3A6969&amp;tr=udp%3A%2F%2Fexodus.desync.com%3A6969","seeders":1,"leechers":2,"uploader":"p7trick","files":16,"time":1423293062,"description":"downloaded from watchcartoononline\n\nGargantia on the Verdurous Planet ENGLISH DUBBED ep 1-13\nGargantia on the Verdurous Planet OVA ENGLISH DUBBED ep 1-2\n_________________________________________________________\n\nFormat : Flash Video\nFile size : 103 MiB\nDuration : 23mn 40s\nOverall bit rate : 610 Kbps\n\n\nVideo\nFormat : AVC\nFormat/Info : Advanced Video Codec\nFormat profile : &lt;a class=&quot;__cf_email__&quot; href=&quot;/cdn-cgi/l/email-protection&quot; data-cfemail=&quot;1e567779765e522d302e&quot;&gt;[email&amp;#160;protected]&lt;/a&gt;&lt;script cf-hash='f9e31' type=&quot;text/javascript&quot;&gt;\n/* &lt;![CDATA[ */!function(){try{var t=&quot;currentScript&quot;in document?document.currentScript:function(){for(var t=document.getElementsByTagName(&quot;script&quot;),e=t.length;e--;)if(t[e].getAttribute(&quot;cf-hash&quot;))return t[e]}();if(t&amp;&amp;t.previousSibling){var e,r,n,i,c=t.previousSibling,a=c.getAttribute(&quot;data-cfemail&quot;);if(a){for(e=&quot;&quot;,r=parseInt(a.substr(0,2),16),n=2;a.length-n;n+=2)i=parseInt(a.substr(n,2),16)^r,e+=String.fromCharCode(i);e=document.createTextNode(e),c.parentNode.replaceChild(e,c)}}}catch(u){}}();/* ]]&gt; */&lt;/script&gt;\nFormat settings, CABAC : Yes\nFormat settings, ReFrames : 5 frames\nCodec ID : 7\nDuration : 23mn 40s\nBit rate : 462 Kbps\nWidth : 852 pixels\nHeight : 480 pixels\nDisplay aspect ratio : 16:9\nFrame rate mode : Constant\nFrame rate : 23.976 fps\nColor space : YUV\nChroma subsampling : 4:2:0\nBit depth : 8 bits\nScan type : Progressive\nBits/(Pixel*Frame) : 0.047\nStream size : 80.4 MiB (78%)\n\n\nAudio\nFormat : AAC\nFormat/Info : Advanced Audio Codec\nFormat profile : LC\nCodec ID : 10\nDuration : 23mn 40s\nBit rate : 126 Kbps\nChannel(s) : 2 channels\nChannel positions : Front: L R\nSampling rate : 44.1 KHz\nCompression mode : Lossy\nStream size : 22.4 MiB (22%)\nLanguage : English\n\n_________________________________________________________\n\nSummary:\nThe story begins in the distant future in the far reaches of the galaxy. The Human Galactic Alliance has been constantly fighting for its survival against a grotesque race of beings called Hideous. During an intense battle, the young lieutenant Ledo and his humanoid mobile weapon Chamber are swallowed up into a distortion of time and space.\n\nWaking from his artificially induced hybernation, Ledo realises that he has arrived on Earth, the planet on the lost frontier. On this planet that was completely flooded by the seas, people live in fleets of giant ships, salvaging relics from the seas' depths in order to survive.\n\nLedo arrives on one of the fleets called Gargantia. With no knowledge of the planet's history or culture, he is forced to live alongside Amy, a 15-year-old girl who serves as a messenger aboard the Gargantia fleet. To Ledo, who has lived a life where he knows nothing but fighting, these days of peace continue to surprise him.\n\n\n\nFor updates/requests:\nTwitter - @p7tricktorrent\nFacebook - /p7tricktorrent\n_________________________________________________________\n\nSEED!\n\nshare ratio:\n&quot;Scumbag = 0.1:1\nLeecher = 0.999:1\nMinimum = 1:1\nGood = 3:1\nGreat = 5:1\nAwesome = 10:1\n1337 = 100:1&quot;","torrent":{"xt":"urn:btih:36359c0383c3b4c4dfd66e05aaf5729ce3a76e96","amp;dn":"Gargantia+on+the+Verdurous+Planet","amp;tr":["udp%3A%2F%2Ftracker.openbittorrent.com%3A80","udp%3A%2F%2Fopen.demonii.com%3A1337","udp%3A%2F%2Ftracker.coppersurfer.tk%3A6969","udp%3A%2F%2Fexodus.desync.com%3A6969"],"infoHash":"36359c0383c3b4c4dfd66e05aaf5729ce3a76e96","infoHashBuffer":{"type":"Buffer","data":[54,53,156,3,131,195,180,196,223,214,110,5,170,245,114,156,227,167,110,150]},"announce":[],"urlList":[]}}